name Walk1.mot
datacolumns 19
datarows 10
range 1.31000000 1.35500000
endheader

                time	   L_ground_force_vx	   L_ground_force_vy	   L_ground_force_vz	   L_ground_force_px	   L_ground_force_py	   L_ground_force_pz	   R_ground_force_vx	   R_ground_force_vy	   R_ground_force_vz	   R_ground_force_px	   R_ground_force_py	   R_ground_force_pz	   L_ground_torque_x	   L_ground_torque_y	   L_ground_torque_z	   R_ground_torque_x	   R_ground_torque_y	   R_ground_torque_z	
          1.31000000	         34.87772249	        520.44739761	         36.48416342	         -0.08944916	          0.00000000	         -0.09948461	         -0.03654515	          0.56080475	          0.03772580	          0.00066476	          0.00000000	          0.00005429	          0.00000000	          0.39384299	          0.00000000	          0.00000000	          0.00210166	          0.00000000	
          1.31500000	         38.95911623	        530.38233824	         37.88608341	         -0.08921445	          0.00000000	         -0.09961283	         -0.04832085	          0.60251478	          0.03835806	          0.00064026	          0.00000000	          0.00003951	          0.00000000	          0.39978221	          0.00000000	          0.00000000	          0.00399877	          0.00000000	
          1.32000000	         43.14671016	        540.13922603	         39.25079559	         -0.08893700	          0.00000000	         -0.09969249	         -0.06072433	          0.59324956	          0.03461336	          0.00052309	          0.00000000	          0.00001159	          0.00000000	          0.40375741	          0.00000000	          0.00000000	          0.00646393	          0.00000000	
          1.32500000	         47.42658849	        549.64374626	         40.54295226	         -0.08861355	          0.00000000	         -0.09971663	         -0.07257704	          0.50563724	          0.02450517	          0.00027588	          0.00000000	         -0.00003337	          0.00000000	          0.40463265	          0.00000000	          0.00000000	          0.00951087	          0.00000000	
          1.33000000	         51.78586842	        558.82028717	         41.72761330	         -0.08824215	          0.00000000	         -0.09968197	         -0.08210913	          0.30665710	          0.00572048	         -0.00014365	          0.00000000	         -0.00009937	          0.00000000	          0.40169384	          0.00000000	          0.00000000	          0.01308924	          0.00000000	
          1.33500000	         56.21158383	        567.59490078	         42.77175276	         -0.08782280	          0.00000000	         -0.09958720	         -0.08684691	         -0.04144793	         -0.02427748	         -0.00078013	          0.00000000	         -0.00019003	          0.00000000	          0.39486471	          0.00000000	          0.00000000	          0.01705501	          0.00000000	
          1.34000000	         60.69019559	        575.89587088	         43.64413666	         -0.08735623	          0.00000000	         -0.09943008	         -0.08352425	         -0.57916416	         -0.06806160	         -0.00167644	          0.00000000	         -0.00030797	          0.00000000	          0.38407182	          0.00000000	          0.00000000	          0.02113580	          0.00000000	
          1.34500000	         65.20620401	        583.65154986	         44.31607600	         -0.08684273	          0.00000000	         -0.09920670	         -0.06804208	         -1.34624074	         -0.12794375	         -0.00286737	          0.00000000	         -0.00045391	          0.00000000	          0.36941668	          0.00000000	          0.00000000	          0.02489265	          0.00000000	
          1.35000000	         69.74195663	        590.78766211	         44.76355032	         -0.08628217	          0.00000000	         -0.09891245	         -0.03550800	         -2.37637510	         -0.20554371	         -0.00437086	          0.00000000	         -0.00062549	          0.00000000	          0.35121042	          0.00000000	          0.00000000	          0.02768104	          0.00000000	
          1.35500000	         74.27777616	        597.22360289	         44.96769136	         -0.08567346	          0.00000000	         -0.09854515	          0.01960412	         -3.68967194	         -0.30120221	         -0.00617632	          0.00000000	         -0.00081592	          0.00000000	          0.33047537	          0.00000000	          0.00000000	          0.02861535	          0.00000000	
